<svg xmlns="http://www.w3.org/2000/svg" version="1.1" xmlns:xlink="http://www.w3.org/1999/xlink" xmlns:svgjs="http://svgjs.dev/svgjs" width="1000" height="623" viewBox="0 0 1000 623"><g transform="matrix(1,0,0,1,-0.6060606060606233,0.2522267206477409)"><svg viewBox="0 0 396 247" data-background-color="#ffffff" preserveAspectRatio="xMidYMid meet" height="623" width="1000" xmlns="http://www.w3.org/2000/svg" xmlns:xlink="http://www.w3.org/1999/xlink"><g id="tight-bounds" transform="matrix(1,0,0,1,0.2400000000000091,-0.09999999999999432)"><svg viewBox="0 0 395.52 247.2" height="247.2" width="395.52"><g><svg></svg></g><g><svg viewBox="0 0 395.52 247.2" height="247.2" width="395.52"><g transform="matrix(1,0,0,1,76.72366136961703,47.215199999999996)"><svg viewBox="0 0 242.07267726076591 152.7696" height="152.7696" width="242.07267726076591"><g><svg viewBox="0 0 242.07267726076591 152.7696" height="152.7696" width="242.07267726076591"><g><svg viewBox="0 0 244.43135999999998 154.25814064274067" height="152.7696" width="242.07267726076591"><g><svg viewBox="0 0 244.43135999999998 154.25814064274067" height="154.25814064274067" width="244.43135999999998"><g id="textblocktransform"><svg viewBox="0 0 244.43135999999998 154.25814064274067" height="154.25814064274067" width="244.43135999999998" id="textblock"><g><svg viewBox="0 0 244.43135999999998 109.9110747869055" height="109.9110747869055" width="244.43135999999998"><g transform="matrix(1,0,0,1,0,0)"><svg width="244.43135999999998" viewBox="1.7999999523162842 -35.70000076293945 80.94999694824219 36.400001525878906" height="109.9110747869055" data-palette-color="#ff5733"><path d="M11.8 0.7Q9.25 0.7 6.58 0.13 3.9-0.45 2.1-1.35L2.1-1.35 2.75-7.15Q7.5-4.35 12.25-4.35L12.25-4.35Q15.05-4.35 16.63-5.48 18.2-6.6 18.2-8.75L18.2-8.75Q18.2-11.05 16.57-12.5 14.95-13.95 10.85-15.75L10.85-15.75Q7.7-17.15 5.8-18.45 3.9-19.75 2.85-21.6 1.8-23.45 1.8-26.1L1.8-26.1Q1.8-28.95 3.25-31.13 4.7-33.3 7.33-34.5 9.95-35.7 13.45-35.7L13.45-35.7Q18.2-35.7 22.3-33.75L22.3-33.75 21.75-28.2Q17.3-30.65 13.05-30.65L13.05-30.65Q10.4-30.65 8.95-29.6 7.5-28.55 7.5-26.35L7.5-26.35Q7.5-24.8 8.35-23.75 9.2-22.7 10.6-21.93 12-21.15 15.1-19.7L15.1-19.7Q19.65-17.55 21.75-15.18 23.85-12.8 23.85-9.15L23.85-9.15Q23.85-4.6 20.65-1.95 17.45 0.7 11.8 0.7L11.8 0.7ZM28.4 0L28.4-35 33.65-35 33.65-20.8 48.35-20.8 48.35-35 53.6-35 53.6 0 48.35 0 48.35-15.65 33.65-15.65 33.65 0 28.4 0ZM77.05-35L82.75-35 72.34-15.3 72.34 0 67.15 0 67.15-15.3 56.7-35 62.4-35 69.75-20.5 77.05-35Z" opacity="1" transform="matrix(1,0,0,1,0,0)" fill="#ff5733" class="wordmark-text-0" data-fill-palette-color="primary" id="text-0"></path></svg></g></svg></g><g transform="matrix(1,0,0,1,0,135.85844167829902)"><svg viewBox="0 0 244.43135999999998 18.399698964441672" height="18.399698964441672" width="244.43135999999998"><g transform="matrix(1,0,0,1,0,0)"><svg width="244.43135999999998" viewBox="2.1500000953674316 -35.599998474121094 480.8600158691406 36.19999694824219" height="18.399698964441672" data-palette-color="#ff5733"><path d="M15.1 0.6L15.1 0.6Q11.25 0.6 8.35-0.75 5.45-2.1 3.83-4.6 2.2-7.1 2.15-10.55L2.15-10.55 7.75-10.55Q7.8-7.75 9.7-5.8 11.6-3.85 15.05-3.85L15.05-3.85Q18.1-3.85 19.83-5.33 21.55-6.8 21.55-9.1L21.55-9.1Q21.55-10.95 20.73-12.1 19.9-13.25 18.48-14 17.05-14.75 15.2-15.35 13.35-15.95 11.3-16.65L11.3-16.65Q7.25-18 5.23-20.15 3.2-22.3 3.2-25.8L3.2-25.8Q3.15-28.75 4.58-30.95 6-33.15 8.58-34.38 11.15-35.6 14.6-35.6L14.6-35.6Q18-35.6 20.58-34.35 23.15-33.1 24.6-30.88 26.05-28.65 26.1-25.7L26.1-25.7 20.5-25.7Q20.5-27.05 19.8-28.28 19.1-29.5 17.75-30.3 16.4-31.1 14.45-31.1L14.45-31.1Q11.95-31.15 10.33-29.85 8.7-28.55 8.7-26.25L8.7-26.25Q8.7-24.2 9.9-23.1 11.1-22 13.2-21.28 15.3-20.55 18-19.6L18-19.6Q20.6-18.75 22.65-17.55 24.7-16.35 25.93-14.4 27.15-12.45 27.15-9.45L27.15-9.45Q27.15-6.8 25.8-4.53 24.45-2.25 21.75-0.83 19.05 0.6 15.1 0.6ZM38.25 0L32.95 0 32.95-35 38.25-35 38.25-20 55.2-20 55.2-35 60.5-35 60.5 0 55.2 0 55.2-15.65 38.25-15.65 38.25 0ZM83.75 0.6L83.75 0.6Q78.55 0.6 74.65-1.7 70.75-4 68.55-8.08 66.34-12.15 66.34-17.5L66.34-17.5Q66.34-22.85 68.55-26.93 70.75-31 74.65-33.3 78.55-35.6 83.75-35.6L83.75-35.6Q88.95-35.6 92.84-33.3 96.75-31 98.92-26.93 101.09-22.85 101.09-17.5L101.09-17.5Q101.09-12.15 98.92-8.08 96.75-4 92.84-1.7 88.95 0.6 83.75 0.6ZM83.75-4.15L83.75-4.15Q87.34-4.15 90.02-5.75 92.7-7.35 94.2-10.35 95.7-13.35 95.7-17.5L95.7-17.5Q95.7-21.65 94.2-24.65 92.7-27.65 90.02-29.25 87.34-30.85 83.75-30.85L83.75-30.85Q80.15-30.85 77.45-29.25 74.75-27.65 73.27-24.65 71.8-21.65 71.8-17.5L71.8-17.5Q71.8-13.35 73.27-10.35 74.75-7.35 77.45-5.75 80.15-4.15 83.75-4.15ZM118.84 0L112.74 0.05 103.29-35 108.99-35 115.94-6 123.94-35 129.79-35 137.54-6 144.49-35 150.19-35 140.59 0 134.39 0 126.74-27.45 118.84 0ZM172.94 0L167.64 0 167.64-35 172.94-35 172.94-20 189.89-20 189.89-35 195.19-35 195.19 0 189.89 0 189.89-15.65 172.94-15.65 172.94 0ZM207.59 0L202.29 0 202.29-35 214.34-35Q218.49-35 221.16-33.6 223.84-32.2 225.14-29.83 226.44-27.45 226.44-24.55L226.44-24.55Q226.44-21.3 224.71-18.65 222.99-16 219.34-14.85L219.34-14.85 226.79 0 220.64 0 213.84-14.1 207.59-14.1 207.59 0ZM207.59-30.55L207.59-18.1 214.04-18.1Q217.64-18.1 219.31-19.85 220.99-21.6 220.99-24.4L220.99-24.4Q220.99-27.2 219.34-28.88 217.69-30.55 213.99-30.55L213.99-30.55 207.59-30.55ZM259.48 0L254.18 0 254.18-12.9 242.58-35 248.58-35 256.83-18.1 265.03-35 270.98-35 259.48-12.9 259.48 0ZM289.18 0.6L289.18 0.6Q283.98 0.6 280.08-1.7 276.18-4 273.98-8.08 271.78-12.15 271.78-17.5L271.78-17.5Q271.78-22.85 273.98-26.93 276.18-31 280.08-33.3 283.98-35.6 289.18-35.6L289.18-35.6Q294.38-35.6 298.28-33.3 302.18-31 304.35-26.93 306.53-22.85 306.53-17.5L306.53-17.5Q306.53-12.15 304.35-8.08 302.18-4 298.28-1.7 294.38 0.6 289.18 0.6ZM289.18-4.15L289.18-4.15Q292.78-4.15 295.45-5.75 298.13-7.35 299.63-10.35 301.13-13.35 301.13-17.5L301.13-17.5Q301.13-21.65 299.63-24.65 298.13-27.65 295.45-29.25 292.78-30.85 289.18-30.85L289.18-30.85Q285.58-30.85 282.88-29.25 280.18-27.65 278.7-24.65 277.23-21.65 277.23-17.5L277.23-17.5Q277.23-13.35 278.7-10.35 280.18-7.35 282.88-5.75 285.58-4.15 289.18-4.15ZM325.53 0.6L325.53 0.6Q321.78 0.6 318.75-0.88 315.73-2.35 313.95-5.4 312.18-8.45 312.18-13.15L312.18-13.15 312.18-35 317.48-35 317.48-13.1Q317.48-8.5 319.68-6.35 321.88-4.2 325.63-4.2L325.63-4.2Q329.33-4.2 331.53-6.35 333.73-8.5 333.73-13.1L333.73-13.1 333.73-35 339.03-35 339.03-13.15Q339.03-8.45 337.2-5.4 335.38-2.35 332.3-0.88 329.23 0.6 325.53 0.6ZM351.12 0L345.82 0 345.82-35 357.87-35Q362.02-35 364.7-33.6 367.37-32.2 368.67-29.83 369.97-27.45 369.97-24.55L369.97-24.55Q369.97-21.3 368.25-18.65 366.52-16 362.87-14.85L362.87-14.85 370.32 0 364.17 0 357.37-14.1 351.12-14.1 351.12 0ZM351.12-30.55L351.12-18.1 357.57-18.1Q361.17-18.1 362.85-19.85 364.52-21.6 364.52-24.4L364.52-24.4Q364.52-27.2 362.87-28.88 361.22-30.55 357.52-30.55L357.52-30.55 351.12-30.55ZM387.77 0.6L387.77 0.6Q383.92 0.6 381.02-0.75 378.12-2.1 376.5-4.6 374.87-7.1 374.82-10.55L374.82-10.55 380.42-10.55Q380.47-7.75 382.37-5.8 384.27-3.85 387.72-3.85L387.72-3.85Q390.77-3.85 392.5-5.33 394.22-6.8 394.22-9.1L394.22-9.1Q394.22-10.95 393.4-12.1 392.57-13.25 391.15-14 389.72-14.75 387.87-15.35 386.02-15.95 383.97-16.65L383.97-16.65Q379.92-18 377.9-20.15 375.87-22.3 375.87-25.8L375.87-25.8Q375.82-28.75 377.25-30.95 378.67-33.15 381.25-34.38 383.82-35.6 387.27-35.6L387.27-35.6Q390.67-35.6 393.25-34.35 395.82-33.1 397.27-30.88 398.72-28.65 398.77-25.7L398.77-25.7 393.17-25.7Q393.17-27.05 392.47-28.28 391.77-29.5 390.42-30.3 389.07-31.1 387.12-31.1L387.12-31.1Q384.62-31.15 383-29.85 381.37-28.55 381.37-26.25L381.37-26.25Q381.37-24.2 382.57-23.1 383.77-22 385.87-21.28 387.97-20.55 390.67-19.6L390.67-19.6Q393.27-18.75 395.32-17.55 397.37-16.35 398.6-14.4 399.82-12.45 399.82-9.45L399.82-9.45Q399.82-6.8 398.47-4.53 397.12-2.25 394.42-0.83 391.72 0.6 387.77 0.6ZM427.87 0L405.62 0 405.62-35 427.87-35 427.87-30.7 410.92-30.7 410.92-19.8 426.37-19.8 426.37-15.6 410.92-15.6 410.92-4.3 427.87-4.3 427.87 0ZM455.37 0L434.17 0 434.17-35 439.47-35 439.47-4.2 455.37-4.2 455.37 0ZM466.36 0L461.06 0 461.06-35 483.01-35 483.01-30.7 466.36-30.7 466.36-19.65 480.16-19.65 480.16-15.4 466.36-15.4 466.36 0Z" opacity="1" transform="matrix(1,0,0,1,0,0)" fill="#ff5733" class="slogan-text-1" data-fill-palette-color="secondary" id="text-1"></path></svg></g></svg></g></svg></g></svg></g></svg></g></svg></g></svg></g><path d="M140.456 41.215L140.456 0 387.656 0 387.656 247.2 140.456 247.2 140.456 205.985 150.272 205.985 150.272 237.384 377.839 237.384 377.839 9.816 150.272 9.816 150.272 41.215Z" fill="#ff5733" stroke="transparent" data-fill-palette-color="primary"></path></svg></g><defs></defs></svg><rect width="395.52" height="247.2" fill="none" stroke="none" visibility="hidden"></rect></g></svg></g></svg>