<svg width="24" height="24" viewBox="0 0 24 24" fill="none" xmlns="http://www.w3.org/2000/svg">
<path d="M22.109 7.66179L23.594 10.3018C23.8605 10.8425 23.9998 11.4448 23.9998 12.0562C23.9998 12.6677 23.8605 13.27 23.594 13.8107L19.089 22.0789C18.8086 22.6556 18.3866 23.1392 17.8685 23.4778C17.3504 23.8163 16.7559 23.9969 16.149 24H7.83002C7.22322 23.9967 6.62876 23.816 6.1107 23.4775C5.59263 23.139 5.17058 22.6554 4.89002 22.0789L3.33502 19.2589L9.47402 13.1571L13.921 15.9193C14.1449 16.0841 14.4181 16.1537 14.6873 16.1145C14.9564 16.0753 15.2023 15.93 15.377 15.7071L22.109 7.66179ZM8.71902 8.33464L1.99002 16.4464L0.40602 13.8482C0.139389 13.3085 0 12.7071 0 12.0964C0 11.4858 0.139389 10.8844 0.40602 10.3446L5.15802 1.91786C5.4394 1.34188 5.862 0.858966 6.38036 0.52105C6.89873 0.183133 7.49326 0.00299388 8.10002 0H16.108C17.336 0 18.465 0.736071 19.05 1.91786L20.666 4.83429L14.649 10.8257L10.217 8.06786C9.98338 7.89655 9.69701 7.82855 9.4177 7.87806C9.13838 7.92758 8.88772 8.09077 8.71802 8.33357L8.71902 8.33464Z" fill="white"/>
</svg>
