<svg width="24" height="24" viewBox="0 0 24 24" fill="none" xmlns="http://www.w3.org/2000/svg">
<path d="M9.49999 15.5L4.24999 20.75C4.03332 20.9667 3.78332 21.075 3.49999 21.075C3.21665 21.075 2.96665 20.9667 2.74999 20.75C2.53332 20.5333 2.42499 20.2833 2.42499 20C2.42499 19.7167 2.53332 19.4667 2.74999 19.25L8.79999 13.2C8.99999 13 9.23332 12.9 9.49999 12.9C9.76665 12.9 9.99999 13 10.2 13.2L13.5 16.5L19.9 9.27501C20.0833 9.05835 20.321 8.95001 20.613 8.95001C20.9043 8.95001 21.15 9.05001 21.35 9.25001C21.5333 9.43335 21.6293 9.65401 21.638 9.91201C21.646 10.1707 21.5583 10.4 21.375 10.6L14.2 18.7C14.0167 18.9167 13.7793 19.0293 13.488 19.038C13.196 19.046 12.95 18.95 12.75 18.75L9.49999 15.5ZM9.49999 9.50001L4.24999 14.75C4.03332 14.9667 3.78332 15.075 3.49999 15.075C3.21665 15.075 2.96665 14.9667 2.74999 14.75C2.53332 14.5333 2.42499 14.2833 2.42499 14C2.42499 13.7167 2.53332 13.4667 2.74999 13.25L8.79999 7.20001C8.99999 7.00001 9.23332 6.90001 9.49999 6.90001C9.76665 6.90001 9.99999 7.00001 10.2 7.20001L13.5 10.5L19.9 3.27501C20.0833 3.05835 20.321 2.95001 20.613 2.95001C20.9043 2.95001 21.15 3.05001 21.35 3.25001C21.5333 3.43335 21.6293 3.65401 21.638 3.91201C21.646 4.17068 21.5583 4.40001 21.375 4.60001L14.2 12.7C14.0167 12.9167 13.7793 13.029 13.488 13.037C13.196 13.0457 12.95 12.95 12.75 12.75L9.49999 9.50001Z" fill="white"/>
</svg>
