<svg width="24" height="24" viewBox="0 0 24 24" fill="none" xmlns="http://www.w3.org/2000/svg">
<path d="M19.5 21C19.0833 21 18.7293 20.854 18.438 20.562C18.146 20.2707 18 19.9167 18 19.5C18 19.0833 18.146 18.7293 18.438 18.438C18.7293 18.146 19.0833 18 19.5 18C19.9167 18 20.2707 18.146 20.562 18.438C20.854 18.7293 21 19.0833 21 19.5C21 19.9167 20.854 20.2707 20.562 20.562C20.2707 20.854 19.9167 21 19.5 21ZM10 22C8.33333 22 6.91667 21.8043 5.75 21.413C4.58333 21.021 4 20.55 4 20C4 19.6167 4.275 19.275 4.825 18.975C5.375 18.675 6.1 18.4333 7 18.25V20H9V2L17 5.9L11 9V18.05C12.4333 18.1333 13.625 18.354 14.575 18.712C15.525 19.0707 16 19.5 16 20C16 20.55 15.4167 21.021 14.25 21.413C13.0833 21.8043 11.6667 22 10 22Z" fill="#61616B"/>
</svg>
