<svg width="60" height="60" viewBox="0 0 60 60" fill="none" xmlns="http://www.w3.org/2000/svg">
<g clip-path="url(#clip0_72_38)">
<path d="M22.5 34.5C19.6 34.5 17.125 33.475 15.075 31.425C13.025 29.375 12 26.9 12 24C12 21.1 13.025 18.625 15.075 16.575C17.125 14.525 19.6 13.5 22.5 13.5C25.4 13.5 27.875 14.525 29.925 16.575C31.975 18.625 33 21.1 33 24C33 26.9 31.975 29.375 29.925 31.425C27.875 33.475 25.4 34.5 22.5 34.5ZM22.5 28.5C23.75 28.5 24.812 28.062 25.686 27.186C26.562 26.312 27 25.25 27 24C27 22.75 26.562 21.688 25.686 20.814C24.812 19.938 23.75 19.5 22.5 19.5C21.25 19.5 20.188 19.938 19.314 20.814C18.438 21.688 18 22.75 18 24C18 25.25 18.438 26.312 19.314 27.186C20.188 28.062 21.25 28.5 22.5 28.5ZM43.5 37.5C41.4 37.5 39.625 36.775 38.175 35.325C36.725 33.875 36 32.1 36 30C36 27.9 36.725 26.125 38.175 24.675C39.625 23.225 41.4 22.5 43.5 22.5C45.6 22.5 47.375 23.225 48.825 24.675C50.275 26.125 51 27.9 51 30C51 32.1 50.275 33.875 48.825 35.325C47.375 36.775 45.6 37.5 43.5 37.5ZM24.9 53.4C27.15 48.85 30.15 45.812 33.9 44.286C37.65 42.762 40.85 42 43.5 42C44.65 42 45.775 42.1 46.875 42.3C47.975 42.5 49.05 42.75 50.1 43.05C51.3 41.15 52.25 39.1 52.95 36.9C53.65 34.7 54 32.4 54 30C54 23.3 51.675 17.625 47.025 12.975C42.375 8.325 36.7 6 30 6C23.3 6 17.625 8.325 12.975 12.975C8.325 17.625 6 23.3 6 30C6 32.25 6.287 34.4 6.861 36.45C7.437 38.5 8.3 40.4 9.45 42.15C11.4 41.15 13.463 40.375 15.639 39.825C17.813 39.275 20.1 39 22.5 39C24.1 39 25.638 39.137 27.114 39.411C28.588 39.687 30.05 40.05 31.5 40.5C30.35 41.1 29.263 41.8 28.239 42.6C27.213 43.4 26.25 44.25 25.35 45.15C24.75 45.05 24.238 45 23.814 45H22.5C20.85 45 19.25 45.175 17.7 45.525C16.15 45.875 14.65 46.4 13.2 47.1C14.8 48.7 16.588 50.038 18.564 51.114C20.538 52.188 22.65 52.95 24.9 53.4ZM30 60C25.85 60 21.95 59.212 18.3 57.636C14.65 56.062 11.475 53.925 8.775 51.225C6.075 48.525 3.938 45.35 2.364 41.7C0.788 38.05 0 34.15 0 30C0 25.85 0.788 21.95 2.364 18.3C3.938 14.65 6.075 11.475 8.775 8.775C11.475 6.075 14.65 3.937 18.3 2.361C21.95 0.787 25.85 0 30 0C34.15 0 38.05 0.787 41.7 2.361C45.35 3.937 48.525 6.075 51.225 8.775C53.925 11.475 56.062 14.65 57.636 18.3C59.212 21.95 60 25.85 60 30C60 34.15 59.212 38.05 57.636 41.7C56.062 45.35 53.925 48.525 51.225 51.225C48.525 53.925 45.35 56.062 41.7 57.636C38.05 59.212 34.15 60 30 60Z" fill="black"/>
</g>
<defs>
<clipPath id="clip0_72_38">
<rect width="60" height="60" fill="white"/>
</clipPath>
</defs>
</svg>
