<svg width="48" height="48" viewBox="0 0 48 48" fill="none" xmlns="http://www.w3.org/2000/svg">
<path d="M0.15 10.665C0.452454 9.33973 1.19597 8.15644 2.25876 7.30893C3.32156 6.46141 4.64065 5.99991 6 6H42C43.3593 5.99991 44.6784 6.46141 45.7412 7.30893C46.804 8.15644 47.5475 9.33973 47.85 10.665L24 25.242L0.15 10.665ZM0 14.091V35.403L17.409 24.729L0 14.091ZM20.283 26.49L0.573 38.568C1.05955 39.5954 1.82797 40.4635 2.78876 41.0711C3.74956 41.6787 4.8632 42.0008 6 42H24.768C24.258 40.5546 23.9983 39.0328 24 37.5C23.9979 35.5293 24.4283 33.5821 25.2608 31.7959C26.0933 30.0096 27.3076 28.4278 28.818 27.162L27.717 26.487L24 28.758L20.283 26.487V26.49ZM48 14.091V29.013C46.7356 27.4459 45.1361 26.1821 43.319 25.3146C41.502 24.4471 39.5135 23.9979 37.5 24C35.4581 23.9974 33.4423 24.459 31.605 25.35L30.591 24.729L48 14.091Z" fill="black"/>
<path d="M37.5 48C40.2848 48 42.9555 46.8938 44.9246 44.9246C46.8938 42.9555 48 40.2848 48 37.5C48 34.7152 46.8938 32.0445 44.9246 30.0754C42.9555 28.1062 40.2848 27 37.5 27C34.7152 27 32.0445 28.1062 30.0754 30.0754C28.1062 32.0445 27 34.7152 27 37.5C27 40.2848 28.1062 42.9555 30.0754 44.9246C32.0445 46.8938 34.7152 48 37.5 48V48ZM39 33V37.5C39 37.8978 38.842 38.2794 38.5607 38.5607C38.2794 38.842 37.8978 39 37.5 39C37.1022 39 36.7206 38.842 36.4393 38.5607C36.158 38.2794 36 37.8978 36 37.5V33C36 32.6022 36.158 32.2206 36.4393 31.9393C36.7206 31.658 37.1022 31.5 37.5 31.5C37.8978 31.5 38.2794 31.658 38.5607 31.9393C38.842 32.2206 39 32.6022 39 33ZM39 42C39 42.3978 38.842 42.7794 38.5607 43.0607C38.2794 43.342 37.8978 43.5 37.5 43.5C37.1022 43.5 36.7206 43.342 36.4393 43.0607C36.158 42.7794 36 42.3978 36 42C36 41.6022 36.158 41.2206 36.4393 40.9393C36.7206 40.658 37.1022 40.5 37.5 40.5C37.8978 40.5 38.2794 40.658 38.5607 40.9393C38.842 41.2206 39 41.6022 39 42Z" fill="black"/>
</svg>
